<?xml version="1.0" encoding="UTF-8"?>
<svg xmlns="http://www.w3.org/2000/svg" xmlns:xlink="http://www.w3.org/1999/xlink" width="192px" height="192px" viewBox="0 0 192 192" version="1.1">
<g id="surface1">
<path style=" stroke:none;fill-rule:nonzero;fill:rgb(100%,100%,100%);fill-opacity:1;" d="M 109.992188 3.960938 C 101.390625 -1.25 90.609375 -1.25 82.007812 3.960938 L 19.007812 42.144531 C 10.933594 47.035156 6 55.792969 6 65.230469 L 6 126.769531 C 6 136.207031 10.933594 144.964844 19.007812 149.855469 L 82.007812 188.039062 C 90.609375 193.25 101.390625 193.25 109.992188 188.039062 L 172.992188 149.855469 C 181.066406 144.964844 186 136.207031 186 126.769531 L 186 65.230469 C 186 55.792969 181.066406 47.035156 172.992188 42.144531 Z M 109.992188 3.960938 "/>
<path style=" stroke:none;fill-rule:nonzero;fill:rgb(97.647059%,75.294119%,75.294119%);fill-opacity:1;" d="M 48.9375 76.34375 L 55.34375 76.34375 L 55.34375 82.75 L 48.9375 82.75 Z M 64.09375 76.34375 L 70.5 76.34375 L 70.5 82.75 L 64.09375 82.75 Z M 123.625 76.34375 L 130.03125 76.34375 L 130.03125 82.75 L 123.625 82.75 Z M 138.78125 76.34375 L 145.1875 76.34375 L 145.1875 82.75 L 138.78125 82.75 Z M 123.625 92.59375 L 130.03125 92.59375 L 130.03125 99 L 123.625 99 Z M 138.78125 92.59375 L 145.1875 92.59375 L 145.1875 99 L 138.78125 99 Z M 138.625 109 L 145.03125 109 L 145.03125 115.40625 L 138.625 115.40625 Z M 48.625 92.75 L 55.03125 92.75 L 55.03125 99.15625 L 48.625 99.15625 Z M 63.78125 92.75 L 70.1875 92.75 L 70.1875 99.15625 L 63.78125 99.15625 Z M 48.625 109.15625 L 55.03125 109.15625 L 55.03125 115.5625 L 48.625 115.5625 Z M 91.59375 111.5 L 101.59375 111.5 L 101.59375 138.53125 L 91.59375 138.53125 Z M 103.9375 111.5 L 115.8125 111.5 L 115.8125 138.53125 L 103.9375 138.53125 Z M 78.46875 111.5 L 89.25 111.5 L 89.25 138.53125 L 78.46875 138.53125 Z M 98.359375 61.5625 L 98.359375 60.5625 C 98.359375 60.390625 98.21875 60.25 98.046875 60.25 L 95.015625 60.25 C 94.84375 60.25 94.703125 60.390625 94.703125 60.5625 L 94.703125 62.171875 C 94.703125 62.75 94.234375 63.234375 93.640625 63.234375 L 92.078125 63.234375 C 91.90625 63.234375 91.765625 63.375 91.765625 63.546875 L 91.765625 66.578125 C 91.765625 66.75 91.90625 66.890625 92.078125 66.890625 L 93 66.890625 C 93.28125 66.890625 93.703125 67.109375 93.703125 67.390625 L 93.75 69.46875 C 93.75 69.984375 93.90625 70.390625 94.421875 70.390625 L 95.078125 70.390625 C 95.296875 70.390625 95.5 70.46875 95.671875 70.34375 L 97.90625 70.34375 C 98.171875 70.34375 98.375 70.125 98.375 69.875 L 98.375 67.875 C 98.375 67.328125 98.8125 66.890625 99.359375 66.890625 L 101.40625 66.890625 C 101.578125 66.890625 101.71875 66.75 101.71875 66.578125 L 101.71875 63.03125 C 101.71875 62.65625 101.40625 62.34375 101.03125 62.34375 L 99.15625 62.34375 C 98.703125 62.34375 98.359375 62 98.359375 61.5625 Z M 98.359375 61.5625 "/>
<path style=" stroke:none;fill-rule:nonzero;fill:rgb(80.784315%,0.784314%,0.784314%);fill-opacity:1;" d="M 97.5625 71.265625 L 94.0625 71.265625 C 93.296875 71.265625 92.6875 70.65625 92.6875 69.890625 L 92.6875 67.640625 C 92.6875 67.578125 92.625 67.515625 92.5625 67.515625 L 90.3125 67.515625 C 89.546875 67.515625 88.9375 66.90625 88.9375 66.140625 L 88.9375 62.640625 C 88.9375 61.875 89.546875 61.265625 90.3125 61.265625 L 90.359375 61.265625 L 90.359375 62.515625 L 90.3125 62.515625 C 90.25 62.515625 90.1875 62.578125 90.1875 62.640625 L 90.1875 66.140625 C 90.1875 66.203125 90.25 66.265625 90.3125 66.265625 L 92.5625 66.265625 C 93.328125 66.265625 93.9375 66.875 93.9375 67.640625 L 93.9375 69.890625 C 93.9375 69.953125 94 70.015625 94.0625 70.015625 L 97.5625 70.015625 C 97.625 70.015625 97.6875 69.953125 97.6875 69.890625 L 97.6875 67.640625 C 97.6875 66.875 98.296875 66.265625 99.0625 66.265625 L 101.3125 66.265625 C 101.375 66.265625 101.4375 66.203125 101.4375 66.140625 L 101.4375 62.640625 C 101.4375 62.578125 101.375 62.515625 101.3125 62.515625 L 99.0625 62.515625 C 98.296875 62.515625 97.6875 61.90625 97.6875 61.140625 L 97.6875 58.890625 C 97.6875 58.828125 97.625 58.765625 97.5625 58.765625 L 94.0625 58.765625 C 94 58.765625 93.9375 58.828125 93.9375 58.890625 L 93.9375 61.140625 C 93.9375 61.90625 93.328125 62.515625 92.5625 62.515625 L 92 62.515625 L 92 61.265625 L 92.5625 61.265625 C 92.625 61.265625 92.6875 61.203125 92.6875 61.140625 L 92.6875 58.890625 C 92.6875 58.125 93.296875 57.515625 94.0625 57.515625 L 97.5625 57.515625 C 98.328125 57.515625 98.9375 58.125 98.9375 58.890625 L 98.9375 61.140625 C 98.9375 61.203125 99 61.265625 99.0625 61.265625 L 101.3125 61.265625 C 102.078125 61.265625 102.6875 61.875 102.6875 62.640625 L 102.6875 66.140625 C 102.6875 66.90625 102.078125 67.515625 101.3125 67.515625 L 99.0625 67.515625 C 99 67.515625 98.9375 67.578125 98.9375 67.640625 L 98.9375 69.890625 C 98.9375 70.65625 98.3125 71.265625 97.5625 71.265625 Z M 97.5625 71.265625 "/>
<path style=" stroke:none;fill-rule:nonzero;fill:rgb(60.000002%,60.000002%,60.000002%);fill-opacity:1;" d="M 116.921875 139.859375 L 74.703125 139.859375 L 74.703125 108.0625 L 116.921875 108.0625 Z M 77.046875 137.515625 L 114.578125 137.515625 L 114.578125 110.40625 L 77.046875 110.40625 Z M 77.046875 137.515625 "/>
<path style=" stroke:none;fill-rule:nonzero;fill:rgb(60.000002%,60.000002%,60.000002%);fill-opacity:1;" d="M 65.296875 107.835938 L 126.328125 107.757812 L 126.328125 110.101562 L 65.296875 110.179688 Z M 65.296875 107.835938 "/>
<path style=" stroke:none;fill-rule:nonzero;fill:rgb(60.000002%,60.000002%,60.000002%);fill-opacity:1;" d="M 102.6875 139.15625 L 88.9375 139.15625 L 88.9375 108.53125 L 102.6875 108.53125 Z M 90.1875 137.90625 L 101.4375 137.90625 L 101.4375 109.78125 L 90.1875 109.78125 Z M 90.1875 137.90625 "/>
<path style=" stroke:none;fill-rule:nonzero;fill:rgb(60.000002%,60.000002%,60.000002%);fill-opacity:1;" d="M 25.882812 139.871094 L 25.886719 137.527344 L 165.886719 137.683594 L 165.882812 140.027344 Z M 25.882812 139.871094 "/>
<path style=" stroke:none;fill-rule:nonzero;fill:rgb(60.000002%,60.000002%,60.000002%);fill-opacity:1;" d="M 155.65625 139.9375 L 36.125 139.9375 L 36.125 67.515625 C 36.125 65.828125 37.484375 64.46875 39.171875 64.46875 L 79.484375 64.46875 L 79.484375 66.8125 L 39.171875 66.8125 C 38.796875 66.8125 38.46875 67.140625 38.46875 67.515625 L 38.46875 137.59375 L 153.3125 137.59375 L 153.3125 67.515625 C 153.3125 67.140625 152.984375 66.8125 152.609375 66.8125 L 112.296875 66.8125 L 112.296875 64.46875 L 152.609375 64.46875 C 154.296875 64.46875 155.65625 65.828125 155.65625 67.515625 Z M 155.65625 139.9375 "/>
<path style=" stroke:none;fill-rule:nonzero;fill:rgb(60.000002%,60.000002%,60.000002%);fill-opacity:1;" d="M 113.46875 109.9375 L 78.3125 109.9375 L 78.3125 51.890625 C 78.3125 50.203125 79.671875 48.84375 81.359375 48.84375 L 110.421875 48.84375 C 112.109375 48.84375 113.46875 50.203125 113.46875 51.890625 Z M 80.65625 107.59375 L 111.125 107.59375 L 111.125 51.890625 C 111.125 51.515625 110.796875 51.1875 110.421875 51.1875 L 81.359375 51.1875 C 80.984375 51.1875 80.65625 51.515625 80.65625 51.890625 Z M 37.296875 123.140625 L 75.890625 123.140625 L 75.890625 124.390625 L 37.296875 124.390625 Z M 115.808594 124.320312 L 115.8125 123.070312 L 154.40625 123.226562 L 154.402344 124.476562 Z M 54.046875 83.375 L 47.796875 83.375 C 46.9375 83.375 46.234375 82.671875 46.234375 81.8125 L 46.234375 75.5625 C 46.234375 74.703125 46.9375 74 47.796875 74 L 54.046875 74 C 54.90625 74 55.609375 74.703125 55.609375 75.5625 L 55.609375 81.8125 C 55.609375 82.671875 54.90625 83.375 54.046875 83.375 Z M 47.796875 75.25 C 47.625 75.25 47.484375 75.390625 47.484375 75.5625 L 47.484375 81.8125 C 47.484375 81.984375 47.625 82.125 47.796875 82.125 L 54.046875 82.125 C 54.21875 82.125 54.359375 81.984375 54.359375 81.8125 L 54.359375 75.5625 C 54.359375 75.390625 54.21875 75.25 54.046875 75.25 Z M 69.25 83.375 L 63 83.375 C 62.140625 83.375 61.4375 82.671875 61.4375 81.8125 L 61.4375 75.5625 C 61.4375 74.703125 62.140625 74 63 74 L 69.25 74 C 70.109375 74 70.8125 74.703125 70.8125 75.5625 L 70.8125 81.8125 C 70.8125 82.671875 70.109375 83.375 69.25 83.375 Z M 63 75.25 C 62.828125 75.25 62.6875 75.390625 62.6875 75.5625 L 62.6875 81.8125 C 62.6875 81.984375 62.828125 82.125 63 82.125 L 69.25 82.125 C 69.421875 82.125 69.5625 81.984375 69.5625 81.8125 L 69.5625 75.5625 C 69.5625 75.390625 69.421875 75.25 69.25 75.25 Z M 54.046875 99.78125 L 47.796875 99.78125 C 46.9375 99.78125 46.234375 99.078125 46.234375 98.21875 L 46.234375 91.96875 C 46.234375 91.109375 46.9375 90.40625 47.796875 90.40625 L 54.046875 90.40625 C 54.90625 90.40625 55.609375 91.109375 55.609375 91.96875 L 55.609375 98.21875 C 55.609375 99.078125 54.90625 99.78125 54.046875 99.78125 Z M 47.796875 91.65625 C 47.625 91.65625 47.484375 91.796875 47.484375 91.96875 L 47.484375 98.21875 C 47.484375 98.390625 47.625 98.53125 47.796875 98.53125 L 54.046875 98.53125 C 54.21875 98.53125 54.359375 98.390625 54.359375 98.21875 L 54.359375 91.96875 C 54.359375 91.796875 54.21875 91.65625 54.046875 91.65625 Z M 54.046875 116.1875 L 47.796875 116.1875 C 46.9375 116.1875 46.234375 115.484375 46.234375 114.625 L 46.234375 108.375 C 46.234375 107.515625 46.9375 106.8125 47.796875 106.8125 L 54.046875 106.8125 C 54.90625 106.8125 55.609375 107.515625 55.609375 108.375 L 55.609375 114.625 C 55.609375 115.484375 54.90625 116.1875 54.046875 116.1875 Z M 47.796875 108.0625 C 47.625 108.0625 47.484375 108.203125 47.484375 108.375 L 47.484375 114.625 C 47.484375 114.796875 47.625 114.9375 47.796875 114.9375 L 54.046875 114.9375 C 54.21875 114.9375 54.359375 114.796875 54.359375 114.625 L 54.359375 108.375 C 54.359375 108.203125 54.21875 108.0625 54.046875 108.0625 Z M 69.25 99.78125 L 63 99.78125 C 62.140625 99.78125 61.4375 99.078125 61.4375 98.21875 L 61.4375 91.96875 C 61.4375 91.109375 62.140625 90.40625 63 90.40625 L 69.25 90.40625 C 70.109375 90.40625 70.8125 91.109375 70.8125 91.96875 L 70.8125 98.21875 C 70.8125 99.078125 70.109375 99.78125 69.25 99.78125 Z M 63 91.65625 C 62.828125 91.65625 62.6875 91.796875 62.6875 91.96875 L 62.6875 98.21875 C 62.6875 98.390625 62.828125 98.53125 63 98.53125 L 69.25 98.53125 C 69.421875 98.53125 69.5625 98.390625 69.5625 98.21875 L 69.5625 91.96875 C 69.5625 91.796875 69.421875 91.65625 69.25 91.65625 Z M 129.046875 83.375 L 122.796875 83.375 C 121.9375 83.375 121.234375 82.671875 121.234375 81.8125 L 121.234375 75.5625 C 121.234375 74.703125 121.9375 74 122.796875 74 L 129.046875 74 C 129.90625 74 130.609375 74.703125 130.609375 75.5625 L 130.609375 81.8125 C 130.609375 82.671875 129.90625 83.375 129.046875 83.375 Z M 122.796875 75.25 C 122.625 75.25 122.484375 75.390625 122.484375 75.5625 L 122.484375 81.8125 C 122.484375 81.984375 122.625 82.125 122.796875 82.125 L 129.046875 82.125 C 129.21875 82.125 129.359375 81.984375 129.359375 81.8125 L 129.359375 75.5625 C 129.359375 75.390625 129.21875 75.25 129.046875 75.25 Z M 144.25 83.375 L 138 83.375 C 137.140625 83.375 136.4375 82.671875 136.4375 81.8125 L 136.4375 75.5625 C 136.4375 74.703125 137.140625 74 138 74 L 144.25 74 C 145.109375 74 145.8125 74.703125 145.8125 75.5625 L 145.8125 81.8125 C 145.8125 82.671875 145.109375 83.375 144.25 83.375 Z M 138 75.25 C 137.828125 75.25 137.6875 75.390625 137.6875 75.5625 L 137.6875 81.8125 C 137.6875 81.984375 137.828125 82.125 138 82.125 L 144.25 82.125 C 144.421875 82.125 144.5625 81.984375 144.5625 81.8125 L 144.5625 75.5625 C 144.5625 75.390625 144.421875 75.25 144.25 75.25 Z M 129.046875 99.78125 L 122.796875 99.78125 C 121.9375 99.78125 121.234375 99.078125 121.234375 98.21875 L 121.234375 91.96875 C 121.234375 91.109375 121.9375 90.40625 122.796875 90.40625 L 129.046875 90.40625 C 129.90625 90.40625 130.609375 91.109375 130.609375 91.96875 L 130.609375 98.21875 C 130.609375 99.078125 129.90625 99.78125 129.046875 99.78125 Z M 122.796875 91.65625 C 122.625 91.65625 122.484375 91.796875 122.484375 91.96875 L 122.484375 98.21875 C 122.484375 98.390625 122.625 98.53125 122.796875 98.53125 L 129.046875 98.53125 C 129.21875 98.53125 129.359375 98.390625 129.359375 98.21875 L 129.359375 91.96875 C 129.359375 91.796875 129.21875 91.65625 129.046875 91.65625 Z M 144.25 116.1875 L 138 116.1875 C 137.140625 116.1875 136.4375 115.484375 136.4375 114.625 L 136.4375 108.375 C 136.4375 107.515625 137.140625 106.8125 138 106.8125 L 144.25 106.8125 C 145.109375 106.8125 145.8125 107.515625 145.8125 108.375 L 145.8125 114.625 C 145.8125 115.484375 145.109375 116.1875 144.25 116.1875 Z M 138 108.0625 C 137.828125 108.0625 137.6875 108.203125 137.6875 108.375 L 137.6875 114.625 C 137.6875 114.796875 137.828125 114.9375 138 114.9375 L 144.25 114.9375 C 144.421875 114.9375 144.5625 114.796875 144.5625 114.625 L 144.5625 108.375 C 144.5625 108.203125 144.421875 108.0625 144.25 108.0625 Z M 144.25 99.78125 L 138 99.78125 C 137.140625 99.78125 136.4375 99.078125 136.4375 98.21875 L 136.4375 91.96875 C 136.4375 91.109375 137.140625 90.40625 138 90.40625 L 144.25 90.40625 C 145.109375 90.40625 145.8125 91.109375 145.8125 91.96875 L 145.8125 98.21875 C 145.8125 99.078125 145.109375 99.78125 144.25 99.78125 Z M 138 91.65625 C 137.828125 91.65625 137.6875 91.796875 137.6875 91.96875 L 137.6875 98.21875 C 137.6875 98.390625 137.828125 98.53125 138 98.53125 L 144.25 98.53125 C 144.421875 98.53125 144.5625 98.390625 144.5625 98.21875 L 144.5625 91.96875 C 144.5625 91.796875 144.421875 91.65625 144.25 91.65625 Z M 138 91.65625 "/>
</g>
</svg>
