<?xml version="1.0" encoding="UTF-8"?>
<svg xmlns="http://www.w3.org/2000/svg" xmlns:xlink="http://www.w3.org/1999/xlink" width="512px" height="512px" viewBox="0 0 512 512" version="1.1">
<g id="surface1">
<path style=" stroke:none;fill-rule:nonzero;fill:rgb(100%,100%,100%);fill-opacity:1;" d="M 293.3125 10.558594 C 270.378906 -3.335938 241.621094 -3.335938 218.6875 10.558594 L 50.6875 112.382812 C 29.15625 125.429688 16.003906 148.777344 16 173.953125 L 16 338.046875 C 16.003906 363.222656 29.15625 386.570312 50.6875 399.617188 L 218.6875 501.441406 C 241.621094 515.335938 270.378906 515.335938 293.3125 501.441406 L 461.3125 399.617188 C 482.84375 386.570312 495.996094 363.222656 496 338.046875 L 496 173.953125 C 495.996094 148.777344 482.84375 125.429688 461.3125 112.382812 Z M 293.3125 10.558594 "/>
<path style=" stroke:none;fill-rule:nonzero;fill:rgb(97.647059%,75.294119%,75.294119%);fill-opacity:1;" d="M 130.5 203.582031 L 147.582031 203.582031 L 147.582031 220.667969 L 130.5 220.667969 Z M 170.917969 203.582031 L 188 203.582031 L 188 220.667969 L 170.917969 220.667969 Z M 329.667969 203.582031 L 346.75 203.582031 L 346.75 220.667969 L 329.667969 220.667969 Z M 370.082031 203.582031 L 387.167969 203.582031 L 387.167969 220.667969 L 370.082031 220.667969 Z M 329.667969 246.917969 L 346.75 246.917969 L 346.75 264 L 329.667969 264 Z M 370.082031 246.917969 L 387.167969 246.917969 L 387.167969 264 L 370.082031 264 Z M 369.667969 290.667969 L 386.75 290.667969 L 386.75 307.75 L 369.667969 307.75 Z M 129.667969 247.332031 L 146.75 247.332031 L 146.75 264.417969 L 129.667969 264.417969 Z M 170.082031 247.332031 L 187.167969 247.332031 L 187.167969 264.417969 L 170.082031 264.417969 Z M 129.667969 291.082031 L 146.75 291.082031 L 146.75 308.167969 L 129.667969 308.167969 Z M 244.25 297.332031 L 270.917969 297.332031 L 270.917969 369.417969 L 244.25 369.417969 Z M 277.167969 297.332031 L 308.832031 297.332031 L 308.832031 369.417969 L 277.167969 369.417969 Z M 209.25 297.332031 L 238 297.332031 L 238 369.417969 L 209.25 369.417969 Z M 262.292969 164.167969 L 262.292969 161.5 C 262.292969 161.042969 261.917969 160.667969 261.457031 160.667969 L 253.375 160.667969 C 252.917969 160.667969 252.542969 161.042969 252.542969 161.5 L 252.542969 165.792969 C 252.542969 167.332031 251.292969 168.625 249.707031 168.625 L 245.542969 168.625 C 245.082031 168.625 244.707031 169 244.707031 169.457031 L 244.707031 177.542969 C 244.707031 178 245.082031 178.375 245.542969 178.375 L 248 178.375 C 248.75 178.375 249.875 178.957031 249.875 179.707031 L 250 185.25 C 250 186.625 250.417969 187.707031 251.792969 187.707031 L 253.542969 187.707031 C 254.125 187.707031 254.667969 187.917969 255.125 187.582031 L 261.082031 187.582031 C 261.792969 187.582031 262.332031 187 262.332031 186.332031 L 262.332031 181 C 262.332031 179.542969 263.5 178.375 264.957031 178.375 L 270.417969 178.375 C 270.875 178.375 271.25 178 271.25 177.542969 L 271.25 168.082031 C 271.25 167.082031 270.417969 166.25 269.417969 166.25 L 264.417969 166.25 C 263.207031 166.25 262.292969 165.332031 262.292969 164.167969 Z M 262.292969 164.167969 "/>
<path style=" stroke:none;fill-rule:nonzero;fill:rgb(80.784315%,0.784314%,0.784314%);fill-opacity:1;" d="M 260.167969 190.042969 L 250.832031 190.042969 C 248.792969 190.042969 247.167969 188.417969 247.167969 186.375 L 247.167969 180.375 C 247.167969 180.207031 247 180.042969 246.832031 180.042969 L 240.832031 180.042969 C 238.792969 180.042969 237.167969 178.417969 237.167969 176.375 L 237.167969 167.042969 C 237.167969 165 238.792969 163.375 240.832031 163.375 L 240.957031 163.375 L 240.957031 166.707031 L 240.832031 166.707031 C 240.667969 166.707031 240.5 166.875 240.5 167.042969 L 240.5 176.375 C 240.5 176.542969 240.667969 176.707031 240.832031 176.707031 L 246.832031 176.707031 C 248.875 176.707031 250.5 178.332031 250.5 180.375 L 250.5 186.375 C 250.5 186.542969 250.667969 186.707031 250.832031 186.707031 L 260.167969 186.707031 C 260.332031 186.707031 260.5 186.542969 260.5 186.375 L 260.5 180.375 C 260.5 178.332031 262.125 176.707031 264.167969 176.707031 L 270.167969 176.707031 C 270.332031 176.707031 270.5 176.542969 270.5 176.375 L 270.5 167.042969 C 270.5 166.875 270.332031 166.707031 270.167969 166.707031 L 264.167969 166.707031 C 262.125 166.707031 260.5 165.082031 260.5 163.042969 L 260.5 157.042969 C 260.5 156.875 260.332031 156.707031 260.167969 156.707031 L 250.832031 156.707031 C 250.667969 156.707031 250.5 156.875 250.5 157.042969 L 250.5 163.042969 C 250.5 165.082031 248.875 166.707031 246.832031 166.707031 L 245.332031 166.707031 L 245.332031 163.375 L 246.832031 163.375 C 247 163.375 247.167969 163.207031 247.167969 163.042969 L 247.167969 157.042969 C 247.167969 155 248.792969 153.375 250.832031 153.375 L 260.167969 153.375 C 262.207031 153.375 263.832031 155 263.832031 157.042969 L 263.832031 163.042969 C 263.832031 163.207031 264 163.375 264.167969 163.375 L 270.167969 163.375 C 272.207031 163.375 273.832031 165 273.832031 167.042969 L 273.832031 176.375 C 273.832031 178.417969 272.207031 180.042969 270.167969 180.042969 L 264.167969 180.042969 C 264 180.042969 263.832031 180.207031 263.832031 180.375 L 263.832031 186.375 C 263.832031 188.417969 262.167969 190.042969 260.167969 190.042969 Z M 260.167969 190.042969 "/>
<path style=" stroke:none;fill-rule:nonzero;fill:rgb(60.000002%,60.000002%,60.000002%);fill-opacity:1;" d="M 311.792969 372.957031 L 199.207031 372.957031 L 199.207031 288.167969 L 311.792969 288.167969 Z M 205.457031 366.707031 L 305.542969 366.707031 L 305.542969 294.417969 L 205.457031 294.417969 Z M 205.457031 366.707031 "/>
<path style=" stroke:none;fill-rule:nonzero;fill:rgb(60.000002%,60.000002%,60.000002%);fill-opacity:1;" d="M 174.121094 287.566406 L 336.871094 287.351562 L 336.878906 293.601562 L 174.128906 293.816406 Z M 174.121094 287.566406 "/>
<path style=" stroke:none;fill-rule:nonzero;fill:rgb(60.000002%,60.000002%,60.000002%);fill-opacity:1;" d="M 273.832031 371.082031 L 237.167969 371.082031 L 237.167969 289.417969 L 273.832031 289.417969 Z M 240.5 367.75 L 270.5 367.75 L 270.5 292.75 L 240.5 292.75 Z M 240.5 367.75 "/>
<path style=" stroke:none;fill-rule:nonzero;fill:rgb(60.000002%,60.000002%,60.000002%);fill-opacity:1;" d="M 69.023438 372.984375 L 69.03125 366.734375 L 442.363281 367.152344 L 442.359375 373.402344 Z M 69.023438 372.984375 "/>
<path style=" stroke:none;fill-rule:nonzero;fill:rgb(60.000002%,60.000002%,60.000002%);fill-opacity:1;" d="M 415.082031 373.167969 L 96.332031 373.167969 L 96.332031 180.042969 C 96.332031 175.542969 99.957031 171.917969 104.457031 171.917969 L 211.957031 171.917969 L 211.957031 178.167969 L 104.457031 178.167969 C 103.457031 178.167969 102.582031 179.042969 102.582031 180.042969 L 102.582031 366.917969 L 408.832031 366.917969 L 408.832031 180.042969 C 408.832031 179.042969 407.957031 178.167969 406.957031 178.167969 L 299.457031 178.167969 L 299.457031 171.917969 L 406.957031 171.917969 C 411.457031 171.917969 415.082031 175.542969 415.082031 180.042969 Z M 415.082031 373.167969 "/>
<path style=" stroke:none;fill-rule:nonzero;fill:rgb(60.000002%,60.000002%,60.000002%);fill-opacity:1;" d="M 302.582031 293.167969 L 208.832031 293.167969 L 208.832031 138.375 C 208.832031 133.875 212.457031 130.25 216.957031 130.25 L 294.457031 130.25 C 298.957031 130.25 302.582031 133.875 302.582031 138.375 Z M 215.082031 286.917969 L 296.332031 286.917969 L 296.332031 138.375 C 296.332031 137.375 295.457031 136.5 294.457031 136.5 L 216.957031 136.5 C 215.957031 136.5 215.082031 137.375 215.082031 138.375 Z M 99.457031 328.375 L 202.375 328.375 L 202.375 331.707031 L 99.457031 331.707031 Z M 308.820312 331.523438 L 308.832031 328.191406 L 411.75 328.609375 L 411.738281 331.941406 Z M 144.125 222.332031 L 127.457031 222.332031 C 125.167969 222.332031 123.292969 220.457031 123.292969 218.167969 L 123.292969 201.5 C 123.292969 199.207031 125.167969 197.332031 127.457031 197.332031 L 144.125 197.332031 C 146.417969 197.332031 148.292969 199.207031 148.292969 201.5 L 148.292969 218.167969 C 148.292969 220.457031 146.417969 222.332031 144.125 222.332031 Z M 127.457031 200.667969 C 127 200.667969 126.625 201.042969 126.625 201.5 L 126.625 218.167969 C 126.625 218.625 127 219 127.457031 219 L 144.125 219 C 144.582031 219 144.957031 218.625 144.957031 218.167969 L 144.957031 201.5 C 144.957031 201.042969 144.582031 200.667969 144.125 200.667969 Z M 184.667969 222.332031 L 168 222.332031 C 165.707031 222.332031 163.832031 220.457031 163.832031 218.167969 L 163.832031 201.5 C 163.832031 199.207031 165.707031 197.332031 168 197.332031 L 184.667969 197.332031 C 186.957031 197.332031 188.832031 199.207031 188.832031 201.5 L 188.832031 218.167969 C 188.832031 220.457031 186.957031 222.332031 184.667969 222.332031 Z M 168 200.667969 C 167.542969 200.667969 167.167969 201.042969 167.167969 201.5 L 167.167969 218.167969 C 167.167969 218.625 167.542969 219 168 219 L 184.667969 219 C 185.125 219 185.5 218.625 185.5 218.167969 L 185.5 201.5 C 185.5 201.042969 185.125 200.667969 184.667969 200.667969 Z M 144.125 266.082031 L 127.457031 266.082031 C 125.167969 266.082031 123.292969 264.207031 123.292969 261.917969 L 123.292969 245.25 C 123.292969 242.957031 125.167969 241.082031 127.457031 241.082031 L 144.125 241.082031 C 146.417969 241.082031 148.292969 242.957031 148.292969 245.25 L 148.292969 261.917969 C 148.292969 264.207031 146.417969 266.082031 144.125 266.082031 Z M 127.457031 244.417969 C 127 244.417969 126.625 244.792969 126.625 245.25 L 126.625 261.917969 C 126.625 262.375 127 262.75 127.457031 262.75 L 144.125 262.75 C 144.582031 262.75 144.957031 262.375 144.957031 261.917969 L 144.957031 245.25 C 144.957031 244.792969 144.582031 244.417969 144.125 244.417969 Z M 144.125 309.832031 L 127.457031 309.832031 C 125.167969 309.832031 123.292969 307.957031 123.292969 305.667969 L 123.292969 289 C 123.292969 286.707031 125.167969 284.832031 127.457031 284.832031 L 144.125 284.832031 C 146.417969 284.832031 148.292969 286.707031 148.292969 289 L 148.292969 305.667969 C 148.292969 307.957031 146.417969 309.832031 144.125 309.832031 Z M 127.457031 288.167969 C 127 288.167969 126.625 288.542969 126.625 289 L 126.625 305.667969 C 126.625 306.125 127 306.5 127.457031 306.5 L 144.125 306.5 C 144.582031 306.5 144.957031 306.125 144.957031 305.667969 L 144.957031 289 C 144.957031 288.542969 144.582031 288.167969 144.125 288.167969 Z M 184.667969 266.082031 L 168 266.082031 C 165.707031 266.082031 163.832031 264.207031 163.832031 261.917969 L 163.832031 245.25 C 163.832031 242.957031 165.707031 241.082031 168 241.082031 L 184.667969 241.082031 C 186.957031 241.082031 188.832031 242.957031 188.832031 245.25 L 188.832031 261.917969 C 188.832031 264.207031 186.957031 266.082031 184.667969 266.082031 Z M 168 244.417969 C 167.542969 244.417969 167.167969 244.792969 167.167969 245.25 L 167.167969 261.917969 C 167.167969 262.375 167.542969 262.75 168 262.75 L 184.667969 262.75 C 185.125 262.75 185.5 262.375 185.5 261.917969 L 185.5 245.25 C 185.5 244.792969 185.125 244.417969 184.667969 244.417969 Z M 344.125 222.332031 L 327.457031 222.332031 C 325.167969 222.332031 323.292969 220.457031 323.292969 218.167969 L 323.292969 201.5 C 323.292969 199.207031 325.167969 197.332031 327.457031 197.332031 L 344.125 197.332031 C 346.417969 197.332031 348.292969 199.207031 348.292969 201.5 L 348.292969 218.167969 C 348.292969 220.457031 346.417969 222.332031 344.125 222.332031 Z M 327.457031 200.667969 C 327 200.667969 326.625 201.042969 326.625 201.5 L 326.625 218.167969 C 326.625 218.625 327 219 327.457031 219 L 344.125 219 C 344.582031 219 344.957031 218.625 344.957031 218.167969 L 344.957031 201.5 C 344.957031 201.042969 344.582031 200.667969 344.125 200.667969 Z M 384.667969 222.332031 L 368 222.332031 C 365.707031 222.332031 363.832031 220.457031 363.832031 218.167969 L 363.832031 201.5 C 363.832031 199.207031 365.707031 197.332031 368 197.332031 L 384.667969 197.332031 C 386.957031 197.332031 388.832031 199.207031 388.832031 201.5 L 388.832031 218.167969 C 388.832031 220.457031 386.957031 222.332031 384.667969 222.332031 Z M 368 200.667969 C 367.542969 200.667969 367.167969 201.042969 367.167969 201.5 L 367.167969 218.167969 C 367.167969 218.625 367.542969 219 368 219 L 384.667969 219 C 385.125 219 385.5 218.625 385.5 218.167969 L 385.5 201.5 C 385.5 201.042969 385.125 200.667969 384.667969 200.667969 Z M 344.125 266.082031 L 327.457031 266.082031 C 325.167969 266.082031 323.292969 264.207031 323.292969 261.917969 L 323.292969 245.25 C 323.292969 242.957031 325.167969 241.082031 327.457031 241.082031 L 344.125 241.082031 C 346.417969 241.082031 348.292969 242.957031 348.292969 245.25 L 348.292969 261.917969 C 348.292969 264.207031 346.417969 266.082031 344.125 266.082031 Z M 327.457031 244.417969 C 327 244.417969 326.625 244.792969 326.625 245.25 L 326.625 261.917969 C 326.625 262.375 327 262.75 327.457031 262.75 L 344.125 262.75 C 344.582031 262.75 344.957031 262.375 344.957031 261.917969 L 344.957031 245.25 C 344.957031 244.792969 344.582031 244.417969 344.125 244.417969 Z M 384.667969 309.832031 L 368 309.832031 C 365.707031 309.832031 363.832031 307.957031 363.832031 305.667969 L 363.832031 289 C 363.832031 286.707031 365.707031 284.832031 368 284.832031 L 384.667969 284.832031 C 386.957031 284.832031 388.832031 286.707031 388.832031 289 L 388.832031 305.667969 C 388.832031 307.957031 386.957031 309.832031 384.667969 309.832031 Z M 368 288.167969 C 367.542969 288.167969 367.167969 288.542969 367.167969 289 L 367.167969 305.667969 C 367.167969 306.125 367.542969 306.5 368 306.5 L 384.667969 306.5 C 385.125 306.5 385.5 306.125 385.5 305.667969 L 385.5 289 C 385.5 288.542969 385.125 288.167969 384.667969 288.167969 Z M 384.667969 266.082031 L 368 266.082031 C 365.707031 266.082031 363.832031 264.207031 363.832031 261.917969 L 363.832031 245.25 C 363.832031 242.957031 365.707031 241.082031 368 241.082031 L 384.667969 241.082031 C 386.957031 241.082031 388.832031 242.957031 388.832031 245.25 L 388.832031 261.917969 C 388.832031 264.207031 386.957031 266.082031 384.667969 266.082031 Z M 368 244.417969 C 367.542969 244.417969 367.167969 244.792969 367.167969 245.25 L 367.167969 261.917969 C 367.167969 262.375 367.542969 262.75 368 262.75 L 384.667969 262.75 C 385.125 262.75 385.5 262.375 385.5 261.917969 L 385.5 245.25 C 385.5 244.792969 385.125 244.417969 384.667969 244.417969 Z M 368 244.417969 "/>
</g>
</svg>
